<svg width="49" height="48" viewBox="0 0 49 48" fill="none" xmlns="http://www.w3.org/2000/svg">
<rect x="1" y="1" width="47" height="46" rx="15" fill="#EE2121"/>
<rect x="1" y="1" width="47" height="46" rx="15" stroke="#BE1717" stroke-width="2"/>
<g clip-path="url(#clip0_12_4190)">
<path d="M26.4943 13.7039C26.745 13.8459 26.9 14.1118 26.9 14.4V33.6C26.9 33.8882 26.745 34.1541 26.4942 34.2962C26.2433 34.4382 25.9356 34.4342 25.6884 34.2859L17.8784 29.6H14.9C13.5753 29.6 12.5 28.5264 12.5 27.2V20.7958C12.5 19.4688 13.576 18.3969 14.9 18.3969H17.8785L25.6886 13.7139C25.9358 13.5657 26.2435 13.5619 26.4943 13.7039Z" fill="#FCFCFC"/>
<path d="M34.6656 18.631L34.0996 18.0655L32.9688 19.1972L33.531 19.7593L33.5345 19.7629C33.5403 19.769 33.5513 19.7809 33.567 19.7988C33.5982 19.8346 33.6479 19.894 33.7102 19.9769C33.8347 20.1428 34.0084 20.4019 34.1846 20.7541C34.5356 21.4557 34.9001 22.5331 34.9001 23.9937C34.9001 25.4544 34.5356 26.5318 34.1846 27.2334C34.0084 27.5856 33.8347 27.8447 33.7102 28.0106C33.6479 28.0934 33.5982 28.1528 33.567 28.1886C33.5513 28.2066 33.5403 28.2186 33.5345 28.2245L33.5311 28.2282L32.9688 28.7902L34.0996 29.9219L34.6656 29.3565L34.1001 28.7906C34.6655 29.3565 34.6652 29.3568 34.6656 29.3565L34.6668 29.3554L34.6681 29.3539L34.6712 29.3509L34.6792 29.3427L34.7016 29.3192C34.7193 29.3003 34.7427 29.2747 34.7707 29.2427C34.8268 29.1786 34.9022 29.088 34.9899 28.971C35.1654 28.7371 35.3916 28.3966 35.6155 27.9494C36.0644 27.052 36.5001 25.731 36.5001 23.9937C36.5001 22.2565 36.0644 20.9355 35.6155 20.0381C35.3916 19.5908 35.1654 19.2503 34.9899 19.0165C34.9022 18.8995 34.8268 18.809 34.7707 18.7448C34.7427 18.7127 34.7193 18.6872 34.7016 18.6683L34.6792 18.6447L34.6712 18.6366L34.6681 18.6335L34.6668 18.6322C34.6665 18.6319 34.6655 18.631 34.1001 19.1969L34.6656 18.631Z" fill="#FCFCFC"/>
</g>
<defs>
<clipPath id="clip0_12_4190">
<rect width="24" height="24" fill="white" transform="translate(12.5 12)"/>
</clipPath>
</defs>
</svg>
